# xmcd
#
# Track frame offsets: 
#        150
#        12482
#        39631
#        68047
#        99949
#        116953
#        149615
#        172462
#        189801
#        213325
#        251177
#        277295
#
# Disc length: 3969 seconds
#
# Revision: 0
# Processed by: cddbd v1.5.2PL0 Copyright (c) Steve Scherf et al.
# Submitted via: ExactAudioCopy v1.3
#
DISCID=c00f7f0c
DTITLE=Brandon Santini - Live and Extended!
DYEAR=2015
DGENRE=Harmonica Blues
TTITLE0=One More Mile
TTITLE1=This Time Another Year
TTITLE2=Elevate Me Moma
TTITLE3=Evil Woman
TTITLE4=Have A Good Time
TTITLE5=Help Me With The Blues
TTITLE6=Got Love If You Want It
TTITLE7=No Matter What I Do
TTITLE8=What You Doing To Me
TTITLE9=My BackScratcher
TTITLE10=I Wanna Boogie With You
TTITLE11=Come On Everybody
EXTD=
EXTT0=
EXTT1=
EXTT2=
EXTT3=
EXTT4=
EXTT5=
EXTT6=
EXTT7=
EXTT8=
EXTT9=
EXTT10=
EXTT11=
PLAYORDER=
